<svg width="124" height="124" viewBox="0 0 124 124" fill="none" xmlns="http://www.w3.org/2000/svg">
<path fill-rule="evenodd" clip-rule="evenodd" d="M58.6096 32.6852C59.9622 25.8381 67.5853 18.9396 77.8513 21.5955C82.1615 22.7106 87.9672 27.6814 86.3091 37.1253C85.9137 39.3772 85.9409 41.0228 86.2512 42.3C86.5535 43.5441 87.1486 44.5402 88.0732 45.4694C88.5179 45.9164 88.6843 46.5699 88.5076 47.1752C88.3309 47.7805 87.839 48.2417 87.2236 48.3792C85.4839 48.7678 83.1233 48.3621 81.1053 47.5055C79.0813 46.6464 76.9089 45.1234 75.9908 42.8176C75.6372 41.9296 76.0704 40.923 76.9585 40.5694C77.8465 40.2158 78.853 40.6491 79.2066 41.5371C79.6343 42.6111 80.8248 43.6261 82.4577 44.3193C82.7746 44.4538 83.0896 44.5683 83.3974 44.6643C83.1909 44.1769 83.0202 43.6625 82.8877 43.1172C82.4274 41.2227 82.4546 39.0629 82.8998 36.5267C84.2087 29.0717 79.762 25.6652 76.9843 24.9466C68.8234 22.8352 63.0087 28.2769 62.0053 33.356C61.3855 36.4939 61.696 38.7492 62.5339 40.5436C63.3868 42.37 64.8746 43.9114 66.9581 45.4587C68.6383 46.7065 70.5878 47.877 72.7746 49.19C73.3309 49.5241 73.9026 49.8673 74.4892 50.2234C77.3378 51.9529 80.4412 53.9326 83.4755 56.4802C88.0862 60.3514 90.7601 64.1708 91.9263 67.8788C93.1022 71.6175 92.6947 75.0847 91.4294 78.1168C89.3434 83.1152 84.9331 86.9356 81.4295 89.2356C82.6009 89.5741 83.7762 89.8726 84.9515 90.1266C91.3837 91.517 97.7204 91.557 103.403 89.6478C109.052 87.7502 114.179 83.8871 118.182 77.2358C118.675 76.4169 119.738 76.1525 120.557 76.6453C121.376 77.1381 121.64 78.2016 121.148 79.0206C116.744 86.3384 110.974 90.756 104.506 92.929C98.0715 95.0905 91.0719 94.9909 84.2202 93.5099C81.8785 93.0037 79.5429 92.3338 77.2387 91.5306C69.9363 94.7398 60.1711 95.4129 52.5307 93.5593C47.7805 92.4069 42.2689 89.7203 36.5794 86.0035C31.776 82.8654 27.943 80.7679 24.9413 79.3901C21.5767 81.0622 18.6804 82.1011 16.6195 82.5791C14.5755 83.0532 12.425 83.1189 10.8328 82.3536C9.98247 81.9449 9.22331 81.2587 8.86308 80.2377C8.5116 79.2414 8.63138 78.1845 9.0024 77.1901C9.67657 75.3831 11.2149 74.4027 12.778 73.9226C14.331 73.4457 16.1184 73.3842 17.7872 73.5367C19.4386 73.6876 21.739 74.264 24.8243 75.5579C26.6199 74.6025 28.5495 73.4573 30.5535 72.1076C28.4878 69.0508 27.1172 66.02 26.2748 63.5874C25.8466 62.3511 25.5497 61.2545 25.3675 60.3717C25.202 59.5698 25.086 58.7409 25.1598 58.1477C25.2566 57.3694 25.6732 56.6778 26.3608 56.2323C26.9922 55.8231 27.7248 55.7002 28.3996 55.7065C29.7348 55.7189 31.4167 56.2411 33.3991 57.2373C35.7931 58.4404 38.8545 60.453 42.6407 63.5649C43.3023 63.1201 43.9578 62.6856 44.6029 62.2653C48.3862 59.8005 52.0269 57.6777 54.4119 56.9762C60.3874 55.2184 65.1448 55.1218 68.9404 55.8102C72.7355 56.4985 75.4661 57.9536 77.3884 59.1425C84.2583 63.3915 85.4798 71.5537 82.4314 76.4558C79.9794 80.3989 75.988 83.3717 70.7696 85.067C72.8212 86.0732 74.9268 86.989 77.0621 87.7869C77.3373 87.6469 77.6071 87.5027 77.871 87.3542C81.2553 85.4494 86.2012 81.657 88.235 76.7837C89.2258 74.4094 89.5261 71.7843 88.6244 68.9172C87.713 66.0195 85.524 62.7197 81.2497 59.1311C78.4223 56.7572 75.5005 54.8868 72.6928 53.1822C72.1496 52.8523 71.6066 52.5265 71.0676 52.203C68.8637 50.8805 66.7248 49.5969 64.8943 48.2375C62.5918 46.5276 60.5952 44.5726 59.3977 42.0082C58.1852 39.4119 57.8793 36.382 58.6096 32.6852ZM72.3683 89.6204C70.0466 88.6096 67.7781 87.4794 65.591 86.2633C61.9762 86.7962 57.9437 86.8221 53.5636 86.2718C43.7215 85.0353 37.0228 80.1787 32.6309 74.8813C31.2875 75.7908 29.9697 76.6167 28.6932 77.362C31.465 78.7712 34.7057 80.6449 38.4725 83.1057C43.9924 86.7117 49.1295 89.1724 53.3467 90.1955C59.1743 91.6093 66.3657 91.3833 72.3683 89.6204ZM35.4602 72.8701C39.3987 77.5437 45.3141 81.7468 53.9951 82.8374C56.3127 83.1286 58.4926 83.2461 60.5316 83.2094C56.0626 80.2914 52.093 77.0896 48.9204 73.9568C46.5458 71.6122 44.3806 69.6098 42.417 67.9071C40.0552 69.5391 37.6692 71.253 35.4602 72.8701ZM39.6627 65.6053C36.3983 62.9857 33.8087 61.317 31.8448 60.3302C30.3238 59.5658 29.2881 59.267 28.6678 59.1895C28.6899 59.3258 28.7191 59.4861 28.7574 59.672C28.9059 60.3912 29.1605 61.3428 29.5456 62.4547C30.2977 64.6266 31.528 67.3534 33.3778 70.1048C35.3675 68.6478 37.5119 67.1041 39.6627 65.6053ZM45.3784 65.8984C47.2207 67.5222 49.2104 69.3788 51.3524 71.4938C55.2524 75.3448 60.4264 79.3057 66.2383 82.6525C72.6279 81.4607 77.0997 78.475 79.492 74.6279C81.4934 71.4095 80.8671 65.364 75.5677 62.0863C73.847 61.0221 71.5334 59.7983 68.3227 59.216C65.1126 58.6338 60.9027 58.6748 55.3887 60.2968C53.5703 60.8318 50.3453 62.6553 46.4924 65.1655C46.1245 65.4051 45.7529 65.6497 45.3784 65.8984ZM20.4673 77.6369C19.1975 77.2441 18.2099 77.0511 17.4722 76.9837C16.0584 76.8545 14.7633 76.9339 13.7942 77.2315C12.8352 77.526 12.4119 77.9538 12.2454 78.4C12.0598 78.8974 12.1265 79.0839 12.1273 79.0861L12.1275 79.0868C12.1289 79.0908 12.131 79.0971 12.1463 79.1128C12.1664 79.1335 12.2194 79.1796 12.3323 79.2339C12.8699 79.4923 14.0783 79.6152 15.8375 79.2072C17.0261 78.9316 18.6062 78.4174 20.4673 77.6369Z" fill="#9A91AA"/>
<path fill-rule="evenodd" clip-rule="evenodd" d="M61.8103 120.159C94.0355 120.159 120.159 94.0355 120.159 61.8103C120.159 29.5851 94.0355 3.46138 61.8103 3.46138C29.5851 3.46138 3.46138 29.5851 3.46138 61.8103C3.46138 94.0355 29.5851 120.159 61.8103 120.159ZM61.8103 123.621C95.9472 123.621 123.621 95.9472 123.621 61.8103C123.621 27.6734 95.9472 0 61.8103 0C27.6734 0 0 27.6734 0 61.8103C0 95.9472 27.6734 123.621 61.8103 123.621Z" fill="#9A91AA"/>
</svg>
